<mxfile host="app.diagrams.net" modified="2022-06-29T18:03:49.189Z" agent="5.0 (Windows NT 10.0; Win64; x64) AppleWebKit/537.36 (KHTML, like Gecko) Chrome/102.0.0.0 Safari/537.36" etag="Dhxw4pc7zwdHVVao1JzS" version="20.0.4" type="github">
  <diagram id="3ebjs5XNTuuarmOKwB-D" name="Page-1">
    <mxGraphModel dx="1038" dy="547" grid="1" gridSize="10" guides="1" tooltips="1" connect="1" arrows="1" fold="1" page="1" pageScale="1" pageWidth="827" pageHeight="1169" math="0" shadow="0">
      <root>
        <mxCell id="0" />
        <mxCell id="1" parent="0" />
        <mxCell id="qauvF9IgAyFSzNcUQxUS-1" value="ARTICLE" style="swimlane;" vertex="1" parent="1">
          <mxGeometry x="310" y="150" width="200" height="200" as="geometry" />
        </mxCell>
      </root>
    </mxGraphModel>
  </diagram>
</mxfile>
